<svg width="290" height="30" viewBox="0 0 290 30" fill="none" xmlns="http://www.w3.org/2000/svg">
<g clip-path="url(#clip0_104_2308)">
<path d="M24.2928 26.0529C24.9592 27.1389 25.7458 28.1403 26.7004 28.8462V28.9729C17.1058 28.9729 16.4814 28.9729 13.7435 24.2129L9.4265 16.7442V23.0063C9.4265 25.1782 9.1383 27.5551 11.1737 28.8462V28.9729H0V28.8462C2.0354 27.5551 1.74721 25.1721 1.74721 23.0063V7.48377C1.74721 5.26971 2.0354 2.93499 0 1.63792V1.51123H11.1737V1.63792C9.1383 2.92895 9.4265 5.31194 9.4265 7.47774V13.8605L14.6201 7.22436C15.3286 6.34959 16.5294 5.09475 16.5294 3.88818C16.5294 2.80226 15.6588 2.09642 14.8663 1.63792V1.51123H25.0433V1.63792L15.8629 12.6539L24.2928 26.0469V26.0529Z" fill="black"/>
<path d="M37.3328 23.0479C37.3328 25.2197 37.0446 27.5545 39.08 28.8455V28.9722H27.9062V28.8455C29.9417 27.5545 29.6475 25.2137 29.6475 23.0479V7.48311C29.6475 5.31128 29.9356 2.93433 27.9062 1.64329V1.5166H39.08V1.64329C37.0446 2.93433 37.3328 5.31731 37.3328 7.48311V23.0479Z" fill="black"/>
<path d="M50.5028 23.0059C50.5028 25.1778 50.2146 27.5547 52.244 28.8458V28.9724H41.0703V28.8458C43.1057 27.5547 42.8175 25.1717 42.8175 23.0059V7.48336C42.8175 5.31153 43.1057 2.93458 41.0703 1.64355V1.51686H53.3608C55.3962 1.51686 57.0593 1.47463 58.9266 2.47608C61.3763 3.80935 62.6252 6.02341 62.6252 8.81663C62.6252 11.9477 60.4217 14.2402 57.6838 15.4106L62.6252 23.7118C63.748 25.588 64.9488 27.3436 66.6119 28.7191L60.884 29.0931C58.1041 29.262 56.7711 28.8819 55.3181 26.2999L50.5028 17.2023V23.0059ZM50.5028 5.56491V14.9943C53.0786 14.5358 54.9879 12.3217 54.9879 9.69743C54.9879 8.36416 54.4475 6.94644 53.3248 6.1501C52.6163 5.64937 51.7457 5.56491 50.9171 5.56491H50.5028Z" fill="black"/>
<path d="M77.114 23.0479C77.114 25.2197 76.8258 27.5545 78.8612 28.8455V28.9722H67.6875V28.8455C69.7229 27.5545 69.4287 25.2137 69.4287 23.0479V7.48311C69.4287 5.31128 69.7169 2.93433 67.6875 1.64329V1.5166H78.8612V1.64329C76.8258 2.93433 77.114 5.31731 77.114 7.48311V23.0479Z" fill="black"/>
<path d="M106.608 29.847C105.155 29.847 102.868 28.8033 101.625 28.1758C98.5506 26.6314 97.7641 25.2137 95.7287 22.5411L87.7552 11.8569H87.6291V22.873C87.6291 25.2921 87.6711 27.1261 89.4543 28.8395V28.9662H81.4388V28.8395C83.2641 27.1322 83.3061 25.2921 83.3061 22.873V8.48457C83.3061 5.26905 83.138 4.14693 80.8984 1.64329V1.5166H89.5384V1.64329L102.285 18.4207V7.6098C102.285 5.19062 102.243 3.35663 100.46 1.64329V1.5166H108.433V1.64329C106.65 3.35663 106.608 5.19062 106.608 7.6098V29.847Z" fill="black"/>
<path d="M133.481 23.0479C133.481 25.2197 133.193 27.5545 135.228 28.8455V28.9722H124.055V28.8455C126.09 27.5545 125.796 25.2137 125.796 23.0479V7.48311C125.796 5.31128 126.084 2.93433 124.055 1.64329V1.5166H135.228V1.64329C133.193 2.93433 133.481 5.31731 133.481 7.48311V23.0479Z" fill="black"/>
<path d="M160.14 7.23012C158.105 5.85462 155.697 5.05828 153.206 5.05828C147.514 5.05828 145.899 9.6493 145.899 14.6988C145.899 20.4542 148.678 25.1296 154.869 25.1296C158.111 25.1296 161.059 23.917 163.839 22.4148L161.762 28.508C159.06 29.2561 156.28 29.5095 153.5 29.5095C149.261 29.5095 145.694 28.7976 142.368 25.9199C139.168 23.2052 137.469 19.2838 137.469 15.0306C137.469 11.1937 139.09 7.14566 141.996 4.55756C145.154 1.84276 149.513 0.841309 153.584 0.841309L159.852 1.38427L160.146 7.22408L160.14 7.23012Z" fill="black"/>
<path d="M174.794 23.0057C174.794 25.1775 174.505 27.5545 176.541 28.8455V28.9722H165.367V28.8455C167.403 27.5545 167.108 25.1715 167.108 23.0057V7.48311C167.108 5.31128 167.397 2.93433 165.367 1.64329V1.5166H176.541V1.64329C174.463 2.93433 174.794 5.31731 174.794 7.48311V12.243H182.227V7.48311C182.227 5.31128 182.515 2.93433 180.48 1.64329V1.5166H191.653V1.64329C189.618 2.93433 189.906 5.31731 189.906 7.48311V23.0057C189.906 25.1775 189.618 27.5545 191.653 28.8455V28.9722H180.48V28.8455C182.515 27.5545 182.227 25.1715 182.227 23.0057V16.454H174.794V23.0057Z" fill="black"/>
<path d="M203.122 23.0479C203.122 25.2197 202.834 27.5545 204.869 28.8455V28.9722H193.695V28.8455C195.731 27.5545 195.443 25.2137 195.443 23.0479V7.48311C195.443 5.31128 195.731 2.93433 193.695 1.64329V1.5166H204.869V1.64329C202.834 2.93433 203.122 5.31731 203.122 7.48311V23.0479Z" fill="black"/>
<path d="M219.482 1.5166C221.686 1.5166 223.511 1.5166 225.252 2.8921C226.957 4.22536 228.032 5.89646 228.032 8.0683C228.032 10.8615 226.123 12.5326 223.631 13.3652C227.203 13.8659 229.611 16.8703 229.611 20.502C229.611 23.0901 228.614 25.262 226.663 26.9693C224.418 28.93 222.22 28.9722 219.272 28.9722H207.102V28.8455C209.137 27.5545 208.849 25.2137 208.849 23.0057V7.44088C208.849 5.26905 209.137 2.8921 207.102 1.64329V1.5166H219.476H219.482ZM216.534 12.0319C216.822 12.1164 217.032 12.2008 217.321 12.2008C219.314 12.2008 220.353 10.409 220.353 8.61126C220.353 6.98238 219.524 5.39574 217.735 5.39574C217.321 5.39574 216.948 5.4802 216.528 5.64912V12.0319H216.534ZM216.534 24.5501C217.159 24.9664 217.615 25.0508 218.359 25.0508C221.061 25.0508 222.136 22.7945 222.136 20.3753C222.136 17.2021 220.683 15.7843 217.525 15.7843H216.528V24.5501H216.534Z" fill="black"/>
<path d="M240.204 20.671L239.207 23.5064C238.919 24.3389 238.456 25.636 238.456 26.5108C238.456 27.6812 239.207 28.2181 239.951 28.8455V28.9722H231.438V28.8455C233.017 27.3855 233.557 26.1729 234.301 24.0494L240.029 7.39865C240.276 6.56611 240.942 4.93724 240.942 4.06247C240.942 2.93433 240.192 2.18625 239.363 1.64329V1.5166H249.54L257.387 23.0057C258.384 25.6782 258.594 26.6375 260.96 28.8455V28.9722H248.417V28.8455C249.372 28.2181 250.122 27.6329 250.122 26.2996C250.122 25.5877 250.038 25.3826 249.792 24.713L248.423 20.6649H240.198L240.204 20.671ZM244.19 8.56903H244.148L241.404 16.7858H247.054L244.19 8.56903Z" fill="black"/>
<path d="M288.171 29.847C286.718 29.847 284.436 28.8033 283.187 28.1758C280.113 26.6314 279.327 25.2137 277.291 22.5411L269.318 11.8569H269.192V22.873C269.192 25.2921 269.234 27.1261 271.017 28.8395V28.9662H263.001V28.8395C264.827 27.1322 264.869 25.2921 264.869 22.873V8.48457C264.869 5.26905 264.7 4.14693 262.461 1.64329V1.5166H271.101V1.64329L283.854 18.4207V7.6098C283.854 5.19062 283.812 3.35663 282.028 1.64329V1.5166H290.002V1.64329C288.219 3.35663 288.177 5.19062 288.177 7.6098V29.847H288.171Z" fill="black"/>
</g>
<defs>
<clipPath id="clip0_104_2308">
<rect width="290" height="29" fill="white" transform="translate(0 0.847168)"/>
</clipPath>
</defs>
</svg>
