<svg width="222" height="38" viewBox="0 0 222 38" fill="none" xmlns="http://www.w3.org/2000/svg">
<path fill-rule="evenodd" clip-rule="evenodd" d="M26.6255 2.24156C27.4284 2.26494 27.3426 2.83009 27.2101 3.02107C24.8404 6.70817 19.2396 13.2015 15.1588 20.3263C14.4845 21.48 13.9817 22.3296 13.9817 23.5964C13.9817 25.3152 15.0536 27.3458 17.2089 28.215C18.6276 28.784 19.5163 28.7996 21.048 28.823C32.4017 29.1738 36.9501 28.8659 47.1111 28.5229C47.6996 28.5229 48.2414 28.1253 48.4402 27.8876C50.4046 25.8414 51.5348 22.1582 51.5348 18.9115C51.5348 11.6776 46.3238 5.16084 38.1974 2.02719L36.8917 3.69925C44.0164 6.64191 47.6957 12.5234 47.6957 18.8218C47.6957 20.2405 47.4541 21.6125 47.0215 22.9221C46.698 23.838 46.3004 24.3603 45.1467 24.3798C36.8683 24.5552 32.1834 24.6877 23.8816 24.4694C22.8097 24.446 22.4629 24.0563 22.2914 23.2105C22.1588 22.7077 22.268 22.2907 22.6149 21.6593C27.0152 13.8602 34.6856 4.94647 36.1901 2.83399C36.4746 2.44423 36.3421 1.65692 35.3599 1.39578C32.4874 0.546111 29.2641 0.203125 25.9941 0.203125C11.195 0.253793 0.757274 8.57901 0.515625 18.9115C1.10806 31.3136 11.8926 37.7173 25.9941 37.7173C34.6233 37.7173 42.5276 34.6655 47.154 29.8286L42.8822 30.0001C38.9379 33.5079 32.616 35.3826 26.0798 35.3826C14.1649 35.3826 4.46387 29.4583 4.46387 18.8218C4.45997 9.67033 14.161 2.21817 26.0759 2.21817L26.6216 2.24156H26.6255ZM124.513 24.6409L132.573 19.348L120.374 10.2589V12.4844H102.328C99.9739 12.4844 98.0368 14.1603 97.686 16.3391L118.608 16.3157V20.2834L102.613 20.3068C100.087 20.3068 98.0173 22.2283 97.9043 24.6409H124.513ZM201.151 12.4181H219.649V8.52055H201.046C194.089 8.52055 188.402 13.8368 188.117 20.5017L210.544 20.4783C212.002 20.4783 213.175 21.4371 213.175 22.5947C213.175 23.7523 211.998 24.7072 210.544 24.7072H185.853V8.51665H178.529V24.598H163.824C161.665 24.2473 160.99 22.6804 160.99 19.6286V8.51665H149.185L138.568 15.3998L129.33 8.51665H100.913C94.6147 8.51665 89.3647 12.8507 88.2071 18.6231H93.9171C91.7617 20.0846 90.1052 22.1543 89.1893 24.598H71.1201C68.9921 24.2473 68.2905 22.6765 68.2905 19.6247V8.51665H60.9904V18.8881C60.6825 25.7556 64.4085 28.215 68.6608 28.6086H125.429L135.89 21.8502L145.022 28.6944H156.196L141.97 17.9955L153.667 10.4148L153.69 18.8881C153.39 25.7556 157.483 28.215 161.735 28.6086H214.859C218.519 28.6086 221.485 25.931 221.485 22.5947C221.485 19.2584 218.515 16.6041 214.859 16.6041H196.513C196.684 14.2734 198.692 12.4181 201.155 12.4181H201.151Z" fill="black"/>
</svg>
