<svg width="24" height="24" viewBox="0 0 24 24" fill="none" xmlns="http://www.w3.org/2000/svg">
<path fill-rule="evenodd" clip-rule="evenodd" d="M14.3917 21.3173L12.0001 23.9424L9.60855 21.3173L6.22477 22.3948L5.46608 18.9256L1.99682 18.1669L3.07431 14.7831L0.449219 12.3917L3.07431 10.0001L1.99682 6.61637L5.46608 5.85768L6.22477 2.38842L9.60855 3.46591L12.0001 0.84082L14.3917 3.46591L17.7755 2.38842L18.5342 5.85768L22.0034 6.61637L20.9259 10.0001L23.551 12.3917L20.9259 14.7833L22.0034 18.1671L18.5342 18.9258L17.7755 22.395L14.3917 21.3175V21.3173ZM12.0226 19.0243C15.6732 19.0243 18.6327 16.0649 18.6327 12.4142C18.6327 8.76365 15.6732 5.80416 12.0226 5.80416C8.37204 5.80416 5.41256 8.76365 5.41256 12.4142C5.41256 16.0649 8.37204 19.0243 12.0226 19.0243Z" fill="white"/>
<circle cx="12.0004" cy="12.3915" r="5.69567" fill="white"/>
</svg>
