<?xml version="1.0" encoding="utf-8"?>
<svg version="1.1" xmlns="http://www.w3.org/2000/svg" xmlns:xlink="http://www.w3.org/1999/xlink" x="0px" y="0px"
	 viewBox="0 0 4000 917" style="enable-background:new 0 0 4000 917;" xml:space="preserve">
<style type="text/css">
	.st0{display:none;}
</style>
<g id="Layer_1">
	<g>
		<polygon points="859.45,139.66 783.04,7.45 261.68,7.45 1,458.5 261.68,909.54 783.04,909.54 567.16,352.02 		"/>
		<polygon points="859.45,139.66 1043.72,458.5 783.04,909.54 1299.79,909.54 1515.68,352.02 1041.42,7.45 		"/>
		<path d="M2052.25,127.41c-10.59-25.55-25.47-47.83-44.64-66.82c-19.17-18.99-41.45-33.69-66.83-44.1
			c-25.38-10.4-53.05-15.61-82.99-15.61c-29.58,0-57.15,5.2-82.71,15.61c-25.57,10.41-47.84,25.02-66.83,43.83
			c-18.99,18.81-33.88,41.08-44.64,66.83c-10.77,25.74-16.16,53.78-16.16,84.08c0,30.32,5.38,58.25,16.16,83.81
			c10.77,25.57,25.75,47.85,44.92,66.83c19.17,18.99,41.44,33.78,66.83,44.37c25.38,10.59,52.86,15.89,82.44,15.89
			s57.15-5.3,82.72-15.89c25.55-10.59,47.83-25.38,66.82-44.37c18.99-18.98,33.87-41.26,44.64-66.83
			c10.77-25.56,16.16-53.49,16.16-83.81C2068.14,180.92,2062.84,152.98,2052.25,127.41z M1993.09,271.2
			c-7.31,18.44-17.53,34.51-30.67,48.2c-13.15,13.7-28.58,24.38-46.29,32.04c-17.72,7.67-37.16,11.51-58.34,11.51
			c-20.81,0-40.17-3.84-58.06-11.51c-17.9-7.67-33.42-18.35-46.56-32.04c-13.15-13.69-23.28-29.76-30.4-48.2
			c-7.12-18.44-10.68-38.43-10.68-59.98c0-21.54,3.56-41.44,10.68-59.7c7.12-18.26,17.25-34.32,30.4-48.21
			c13.14-13.87,28.57-24.65,46.29-32.32c17.71-7.67,37.15-11.5,58.34-11.5c21.18,0,40.62,3.83,58.34,11.5
			c17.7,7.67,33.14,18.45,46.29,32.32c13.14,13.88,23.36,29.95,30.67,48.21c7.3,18.26,10.96,38.16,10.96,59.7
			C2004.05,232.77,2000.39,252.77,1993.09,271.2z"/>
		<path d="M2152.85,407.05c16.8,10.04,36.33,15.06,58.61,15.06c21.55,0,40.35-4.93,56.42-14.79c11.77-7.22,21.07-16.72,27.94-28.46
			v36.67h58.61V119.2h-61.35v174.74c0,14.24-2.83,26.66-8.49,37.25c-5.67,10.59-13.42,18.81-23.28,24.65
			c-9.86,5.84-21.36,8.76-34.51,8.76c-12.79,0-24.1-2.82-33.96-8.49c-9.86-5.65-17.53-13.6-23.01-23.83
			c-5.48-10.22-8.21-22.09-8.21-35.6V119.2h-61.9v182.95c0,23.75,4.66,44.64,13.97,62.72C2123,382.95,2136.05,397.01,2152.85,407.05
			z"/>
		<path d="M2872.8,338.85l-54.23-25.74c-6.57,15.7-16.53,28.21-29.85,37.52c-13.33,9.31-28.95,13.97-46.83,13.97
			c-16.8,0-31.86-4.2-45.19-12.6c-13.33-8.4-23.83-19.99-31.5-34.78c-7.67-14.79-11.5-31.5-11.5-50.12
			c0-18.63,3.83-35.33,11.5-50.12c7.67-14.79,18.16-26.29,31.5-34.51c13.33-8.22,28.39-12.32,45.19-12.32
			c17.53,0,33.14,4.66,46.83,13.97c13.69,9.32,23.64,21.64,29.85,36.97l54.23-25.19c-6.21-16.44-15.8-30.86-28.76-43.28
			c-12.97-12.41-28.21-22.18-45.74-29.31c-17.53-7.12-36.34-10.68-56.42-10.68c-29.58,0-55.87,6.67-78.88,19.99
			c-23.01,13.34-41.08,31.69-54.23,55.05c-13.14,23.37-19.72,49.67-19.72,78.88c0,29.58,6.66,56.06,19.99,79.43
			c13.33,23.37,31.4,41.9,54.23,55.6c22.82,13.69,49.02,20.54,78.6,20.54c20.45,0,39.44-3.66,56.97-10.96
			c17.53-7.3,32.77-17.25,45.74-29.85C2857.55,368.7,2866.96,354.56,2872.8,338.85z"/>
		<path d="M3186.12,347.07c13.87-23.37,20.81-50.03,20.81-79.97c0-29.94-6.85-56.51-20.54-79.7c-13.7-23.19-32.14-41.44-55.33-54.78
			c-23.19-13.32-49.39-19.99-78.6-19.99c-28.85,0-54.96,6.67-78.33,19.99c-23.37,13.34-42,31.59-55.87,54.78
			c-13.88,23.19-20.82,49.76-20.82,79.7c0,29.58,6.94,56.06,20.82,79.42c13.87,23.38,32.59,41.82,56.15,55.33
			c23.55,13.51,49.57,20.27,78.06,20.27c28.49,0,54.41-6.66,77.79-19.99C3153.61,388.79,3172.24,370.44,3186.12,347.07z
			 M3131.07,317.21c-7.85,14.79-18.54,26.39-32.04,34.78c-13.51,8.4-29.03,12.6-46.56,12.6c-17.17,0-32.59-4.2-46.29-12.6
			c-13.69-8.4-24.47-19.99-32.32-34.78c-7.85-14.79-11.78-31.5-11.78-50.12c0-18.63,3.92-35.24,11.78-49.85
			c7.85-14.6,18.63-26.11,32.32-34.51c13.69-8.4,29.12-12.6,46.29-12.6c17.53,0,33.05,4.2,46.56,12.6
			c13.51,8.4,24.19,19.91,32.04,34.51c7.85,14.61,11.78,31.22,11.78,49.85C3142.84,285.72,3138.92,302.42,3131.07,317.21z"/>
		<path d="M3305.53,240.8c0-14.6,2.64-27.2,7.94-37.79c5.29-10.59,12.68-18.71,22.18-24.38c9.49-5.66,20.45-8.49,32.87-8.49
			c12.77,0,23.83,2.83,33.14,8.49c9.31,5.66,16.61,13.69,21.91,24.1c5.29,10.41,7.94,23.1,7.94,38.07v174.74h61.35V240.8
			c0-14.6,2.74-27.2,8.22-37.79c5.47-10.59,12.96-18.71,22.46-24.38c9.49-5.66,20.44-8.49,32.86-8.49c12.41,0,23.28,2.83,32.59,8.49
			c9.31,5.66,16.61,13.69,21.91,24.1c5.29,10.41,7.94,23.1,7.94,38.07v174.74h61.9V223.82c0-21.54-4.93-40.71-14.79-57.51
			c-9.86-16.8-23.1-29.94-39.71-39.44c-16.62-9.5-35.15-14.25-55.6-14.25c-23.37,0-44.09,5.85-62.17,17.53
			c-12.45,8.05-22.63,19.02-30.67,32.78c-6.88-12.35-16.52-22.85-29.04-31.41c-18.45-12.6-39.53-18.9-63.27-18.9
			c-21.19,0-39.99,5.12-56.42,15.34c-11.13,6.93-19.86,16.17-26.3,27.62V119.2h-59.16v296.34h61.9V240.8z"/>
		<path d="M3989.41,201.36c-6.39-17.16-15.61-32.4-27.66-45.74c-12.05-13.33-26.84-23.83-44.37-31.5
			c-17.52-7.67-37.43-11.51-59.7-11.51c-27.76,0-52.59,6.67-74.5,19.99c-21.91,13.34-39.35,31.5-52.31,54.5
			c-12.96,23.01-19.45,49.49-19.45,79.43c0,29.22,6.39,55.6,19.17,79.15c12.78,23.55,30.58,42.17,53.41,55.87
			c22.82,13.69,49.02,20.54,78.6,20.54c20.08,0,38.62-3.2,55.6-9.59c16.98-6.38,31.58-15.15,43.82-26.29
			c12.23-11.13,21.27-23.64,27.11-37.52l-50.39-24.65c-7.31,12.79-17.25,23.2-29.85,31.23c-12.6,8.03-27.85,12.05-45.74,12.05
			c-17.53,0-33.14-4.2-46.83-12.6c-13.7-8.4-24.29-20.08-31.78-35.06c-5.14-10.29-8.04-21.81-8.78-34.51h220.49
			c1.1-4.38,1.83-9.12,2.2-14.24c0.36-5.11,0.54-10.04,0.54-14.79C3999,236.79,3995.8,218.53,3989.41,201.36z M3777.25,235.87
			c1.4-8.66,3.72-16.61,7.02-23.83c6.93-15.15,16.79-26.84,29.58-35.06c12.77-8.21,27.38-12.32,43.82-12.32
			c16.43,0,30.76,4.11,43,12.32c12.23,8.22,21.37,19.36,27.39,33.42c3.38,7.88,5.18,16.38,5.51,25.47H3777.25z"/>
		<path d="M2438.42,318.59c0,31.77,8.58,56.42,25.75,73.95c17.16,17.52,41.26,26.29,72.3,26.29c4.74,0,10.22-0.37,16.44-1.1
			c6.2-0.73,11.86-1.46,16.98-2.19v-51.53h-18.96c-0.43,0.01-0.9,0.04-1.31,0.04c-0.31,0-0.58-0.04-0.89-0.04h-48.4l0-48.09
			c0-0.02,0-0.05,0-0.07V175.07h67.37V119.2h-67.37V51.27h-61.9v23.01c0,13.88-3.83,24.84-11.5,32.87
			c-7.67,8.03-18.45,12.05-32.32,12.05h-8.22v55.87h52.04V318.59z"/>
		<path d="M1777.82,572.67c20.81-12.78,44.73-19.17,71.76-19.17c27.02,0,50.12,6.85,69.29,20.54c19.18,13.69,33.14,31.5,41.9,53.41
			l58.07-27.39c-6.94-18.62-18.27-35.88-33.96-51.76c-15.71-15.88-34.97-28.76-57.79-38.62c-22.83-9.86-48.67-14.79-77.51-14.79
			c-29.22,0-56.06,5.2-80.53,15.61c-24.47,10.41-45.83,25.02-64.09,43.83c-18.26,18.81-32.41,41.08-42.45,66.83
			c-10.05,25.74-15.06,53.78-15.06,84.08c0,30.68,5.11,58.8,15.34,84.36c10.22,25.57,24.38,47.75,42.45,66.55
			c18.08,18.81,39.44,33.51,64.09,44.09s51.4,15.89,80.25,15.89c28.84,0,54.68-4.93,77.51-14.79c22.82-9.86,42.08-22.82,57.79-38.9
			c15.69-16.06,27.02-33.22,33.96-51.49l-58.07-27.39c-8.76,21.92-22.73,39.63-41.9,53.14c-19.17,13.51-42.27,20.27-69.29,20.27
			c-27.03,0-50.95-6.3-71.76-18.9c-20.82-12.6-36.97-30.3-48.48-53.13c-11.5-22.82-17.25-49.38-17.25-79.7
			c0-30.3,5.75-56.78,17.25-79.42C1740.85,603.16,1757,585.46,1777.82,572.67z"/>
		<path d="M2140.98,622.24c-11.08,6.51-19.84,16.14-26.3,28.84V613.2h-59.16v296.34h61.9v-170.9c0-23.37,6.3-41.36,18.9-53.95
			c12.6-12.6,29.12-18.9,49.57-18.9h25.75v-56.42h-18.08C2173.11,609.37,2155.58,613.66,2140.98,622.24z"/>
		<path d="M2473.65,649.63c-12.05-13.33-26.84-23.83-44.37-31.5c-17.52-7.67-37.43-11.51-59.7-11.51c-27.76,0-52.59,6.67-74.5,19.99
			c-21.91,13.34-39.35,31.5-52.31,54.5c-12.96,23.01-19.45,49.49-19.45,79.43c0,29.22,6.39,55.6,19.17,79.15
			c12.78,23.55,30.58,42.17,53.41,55.87c22.82,13.69,49.02,20.54,78.6,20.54c20.08,0,38.62-3.2,55.6-9.59
			c16.98-6.38,31.58-15.15,43.82-26.29c12.23-11.13,21.27-23.64,27.11-37.52l-50.39-24.65c-7.31,12.79-17.25,23.2-29.85,31.23
			c-12.6,8.03-27.85,12.05-45.74,12.05c-17.53,0-33.14-4.2-46.83-12.6c-13.7-8.4-24.29-20.08-31.78-35.06
			c-5.14-10.29-8.04-21.81-8.78-34.51h220.49c1.1-4.38,1.83-9.12,2.2-14.24c0.36-5.11,0.54-10.04,0.54-14.79
			c0-19.35-3.2-37.61-9.59-54.78C2494.93,678.21,2485.71,662.96,2473.65,649.63z M2289.16,729.88c1.4-8.66,3.72-16.61,7.02-23.83
			c6.93-15.15,16.79-26.84,29.58-35.06c12.77-8.21,27.38-12.32,43.82-12.32c16.43,0,30.76,4.11,43,12.32
			c12.23,8.22,21.37,19.36,27.39,33.42c3.38,7.88,5.18,16.39,5.51,25.47H2289.16z"/>
		<path d="M2731.93,619.77c-18.07-8.76-38.81-13.15-62.17-13.15c-18.63,0-36.25,3.11-52.86,9.32
			c-16.62,6.21-31.14,14.88-43.55,26.02c-12.42,11.14-21.37,24.02-26.84,38.62l51.49,25.75c5.84-13.51,14.87-24.55,27.11-33.14
			c12.23-8.57,26.57-12.87,43-12.87c17.89,0,32.22,4.66,43,13.97c10.77,9.31,16.16,21.28,16.16,35.88v11.31L2633.06,737
			c-22.64,3.66-41.45,9.86-56.42,18.63c-14.97,8.76-26.02,19.54-33.14,32.32c-7.12,12.78-10.68,27.21-10.68,43.27
			c0,17.17,4.2,32.04,12.6,44.64c8.4,12.6,20.17,22.46,35.33,29.58c15.15,7.12,32.77,10.68,52.86,10.68
			c16.8,0,32.04-2.38,45.74-7.13c13.69-4.74,25.92-11.5,36.7-20.26c5.09-4.15,9.73-8.69,13.97-13.58v34.39h59.16V710.16
			c0-20.44-5.02-38.43-15.06-53.95C2764.06,640.68,2750.01,628.54,2731.93,619.77z M2727.28,786.29c0,14.98-3.47,28.58-10.41,40.81
			c-6.94,12.24-16.71,22.01-29.31,29.31c-12.6,7.31-27.3,10.95-44.09,10.95c-13.51,0-24.56-3.56-33.14-10.68
			c-8.59-7.12-12.87-16.34-12.87-27.66c0-11.68,3.83-21.27,11.5-28.76c7.67-7.48,19.72-12.68,36.16-15.61l82.16-14.36V786.29z"/>
		<rect x="3046.06" y="501.46" width="61.9" height="71.21"/>
		<rect x="3046.06" y="613.2" width="61.9" height="296.34"/>
		<polygon points="3281.14,821.43 3204.18,613.2 3136.8,613.2 3252.93,909.54 3309.35,909.54 3426.02,613.2 3358.1,613.2 		"/>
		<path d="M3677.44,649.63c-12.05-13.33-26.84-23.83-44.37-31.5c-17.52-7.67-37.43-11.51-59.7-11.51c-27.76,0-52.59,6.67-74.5,19.99
			c-21.91,13.34-39.35,31.5-52.31,54.5c-12.96,23.01-19.45,49.49-19.45,79.43c0,29.22,6.39,55.6,19.17,79.15
			c12.78,23.55,30.58,42.17,53.41,55.87c22.82,13.69,49.02,20.54,78.6,20.54c20.08,0,38.62-3.2,55.6-9.59
			c16.98-6.38,31.58-15.15,43.82-26.29c12.23-11.13,21.27-23.64,27.11-37.52l-50.39-24.65c-7.31,12.79-17.25,23.2-29.85,31.23
			c-12.6,8.03-27.85,12.05-45.74,12.05c-17.53,0-33.14-4.2-46.83-12.6c-13.7-8.4-24.29-20.08-31.77-35.06
			c-5.14-10.29-8.03-21.81-8.78-34.51h220.49c1.1-4.38,1.83-9.12,2.2-14.24c0.36-5.11,0.54-10.04,0.54-14.79
			c0-19.35-3.2-37.61-9.59-54.78C3698.71,678.21,3689.5,662.96,3677.44,649.63z M3492.94,729.88c1.4-8.66,3.72-16.61,7.02-23.83
			c6.93-15.15,16.79-26.84,29.58-35.06c12.77-8.21,27.38-12.32,43.82-12.32c16.43,0,30.76,4.11,43,12.32
			c12.23,8.22,21.37,19.36,27.39,33.42c3.38,7.88,5.18,16.39,5.51,25.47H3492.94z"/>
		<path d="M2978.88,858.05c-0.31,0-0.58-0.04-0.89-0.04h-48.4l0-48.09c0-0.02,0-0.05,0-0.07V669.07h67.37V613.2h-67.37v-67.93h-61.9
			v23.01c0,13.88-3.83,24.84-11.5,32.87c-7.67,8.03-18.45,12.05-32.32,12.05h-8.22v55.87h52.04v143.52
			c0,31.77,8.58,56.42,25.75,73.95c17.16,17.52,41.26,26.29,72.3,26.29c4.74,0,10.22-0.37,16.44-1.1c6.2-0.73,11.86-1.46,16.98-2.19
			v-51.53h-18.96C2979.76,858.02,2979.29,858.05,2978.88,858.05z"/>
	</g>
</g>
<g id="Layer_2" class="st0">
</g>
<g id="Layer_3" class="st0">
</g>
</svg>
