<svg width="172" height="42" viewBox="0 0 172 42" fill="none" xmlns="http://www.w3.org/2000/svg">
<path d="M0.457031 1.48758V40.6196H8.28424V8.95537H11.9711C11.9711 8.95537 17.7261 8.69429 17.7261 13.9806C17.7261 19.267 12.6149 19.1354 12.6149 19.1354H10.7393V28.1416L18.5665 40.6196H27.7496L16.8193 24.6202C16.8193 24.6202 25.8099 23.837 25.8099 13.9828C25.8099 4.12861 19.0178 1.48974 9.96302 1.48974H0.457031V1.48758ZM114.882 19.7892C114.882 19.7892 118.308 17.0985 118.308 12.002C118.308 6.90556 114.636 2.30535 106.819 2.30535H93.7291V40.6174H109.854C109.854 40.6174 121.411 40.4858 121.411 29.9476C121.411 23.8305 119.058 21.4873 114.882 19.787V19.7892ZM108.575 33.9501H101.558V8.98558H105.309C105.309 8.98558 110.406 8.59935 110.406 13.0852C110.406 17.5711 106.351 17.1762 106.351 17.1762H104.016V23.9017H108.573C109.768 23.9017 113.575 24.4865 113.575 28.9054C113.575 33.3244 108.575 33.948 108.575 33.948V33.9501ZM164.234 0.717285H171.543V40.6196H164.234V0.717285ZM151.655 0.717285H159.061V40.6196H151.655V0.717285ZM123.614 17.2452H131.116V30.623C131.116 30.623 131.377 35.1282 135.579 35.1282C139.781 35.1282 139.719 30.623 139.719 30.623V17.3078H147.286V31.0804C147.286 31.0804 148.256 41.8473 135.771 41.8473C123.286 41.8473 123.611 32.3836 123.611 30.6877V17.2431L123.614 17.2452ZM73.8724 0.717285V18.8117C73.8724 18.8117 70.2496 16.0067 66.1072 16.0067C61.9647 16.0067 54.9844 18.9433 54.9844 28.2085C54.9844 37.4736 60.9361 41.0015 66.0452 41.0015C71.1542 41.0015 74.0028 37.6074 74.0028 37.6074V40.6217H81.3745V0.719445H73.8724V0.717285ZM68.1795 34.4723C67.7902 34.4723 62.9399 34.5392 62.9399 28.5343C62.9399 22.5294 68.2436 22.3331 68.2436 22.3331C68.2436 22.3331 74.1953 22.5294 74.1953 28.4027C74.1953 34.2759 68.5665 34.4723 68.1795 34.4723ZM40.2368 16.0046C52.786 16.0046 52.2684 28.3401 52.2684 28.3401V30.2971H35.2581C35.2581 33.1021 37.5871 35.5188 40.7564 35.5188C43.9258 35.5188 45.5426 32.4527 45.5426 32.4527L51.5563 35.454C48.7761 39.6982 45.025 41.392 40.8206 41.392C27.7539 41.392 27.4951 30.4288 27.4951 29.0586C27.4951 27.6885 27.6897 16.0067 40.2368 16.0067V16.0046ZM35.3843 25.7919H44.7C44.7 25.7919 44.3129 21.3556 40.1085 21.3556C35.904 21.3556 35.3843 25.7919 35.3843 25.7919Z" fill="black"/>
</svg>
