<svg width="220" height="36" viewBox="0 0 220 36" fill="none" xmlns="http://www.w3.org/2000/svg">
<path d="M208.867 16.2196V20.9842H212.091V25.7114C212.101 26.1337 212.078 26.5893 212.009 26.9539C211.881 27.8357 211.074 29.3372 208.786 29.3372C206.498 29.3372 205.72 27.8357 205.582 26.9539C205.524 26.5893 205.5 26.1337 205.5 25.7114V10.7807C205.5 10.2524 205.534 9.67462 205.642 9.23712C205.798 8.44152 206.477 6.87203 208.769 6.87203C211.175 6.87203 211.776 8.52643 211.913 9.23712C212.004 9.70768 212.009 10.4971 212.009 10.4971V12.31H219.929V11.2383C219.929 11.2383 219.965 10.1199 219.869 9.07638C219.274 2.94814 214.413 1.0092 208.839 1.0092C203.265 1.0092 198.492 2.96596 197.799 9.07638C197.736 9.63508 197.641 10.6404 197.641 11.2383V24.9729C197.641 25.5711 197.659 26.0342 197.766 27.1273C198.283 33.087 203.255 35.1993 208.817 35.1993C214.378 35.1993 219.351 33.0867 219.877 27.1273C219.97 26.0342 219.98 25.5711 219.993 24.9729V16.2196H208.867H208.867ZM154.253 1.88777H146.298V26.0556C146.311 26.4769 146.298 26.95 146.229 27.2968C146.063 28.108 145.4 29.6693 143.206 29.6693C141.012 29.6693 140.361 28.108 140.207 27.2968C140.128 26.95 140.118 26.4766 140.128 26.0556V1.88777H132.176V25.3057C132.166 25.9094 132.212 27.1425 132.246 27.4656C132.795 33.568 137.425 35.549 143.206 35.549C148.988 35.549 153.626 33.568 154.185 27.4656C154.229 27.1425 154.287 25.9094 154.253 25.3057V1.88777ZM81.1682 1.88777L77.2003 27.4242L73.2348 1.88777H60.4041L59.7236 34.5564H67.584L67.7968 4.31411L73.2052 34.5564H81.1804L86.5935 4.31411L86.8072 34.5564H94.6876L93.9841 1.88777H81.1679H81.1682ZM33.6633 1.88777L27.8374 34.5564H36.333L40.7234 4.31411L45.0084 34.5564H53.445L47.6435 1.88777H33.6636H33.6633ZM182.051 28.1899L174.645 1.88777H162.974V34.2158H170.694L170.246 7.07231L178.2 34.2158H189.394V1.88777H181.622L182.051 28.1899H182.051ZM110.636 10.3899C110.496 9.74462 110.536 9.05921 110.608 8.7011C110.833 7.65532 111.51 6.5149 113.459 6.5149C115.275 6.5149 116.34 7.69129 116.34 9.4562V11.4538H124.094V9.17684C124.094 2.13796 118.019 1.03221 113.62 1.03221C108.08 1.03221 103.556 2.92902 102.73 8.22536C102.511 9.66684 102.457 10.9463 102.805 12.5786C104.152 19.1826 115.22 21.0982 116.827 25.2746C117.11 26.0656 117.029 27.0745 116.884 27.6688C116.644 28.7558 115.94 29.8489 113.853 29.8489C111.896 29.8489 110.718 28.6803 110.718 26.9189L110.716 23.7838H102.37V26.276C102.37 33.4973 107.815 35.6761 113.68 35.6761C119.545 35.6761 123.937 33.6824 124.681 28.2778C125.036 25.4852 124.769 23.6665 124.626 22.9814C123.326 16.208 111.529 14.1705 110.636 10.3899M8.35209 10.3098C8.19983 9.65129 8.2354 8.95615 8.32026 8.59383C8.53523 7.55323 9.21569 6.3924 11.199 6.3924C13.0386 6.3924 14.1218 7.57981 14.1218 9.3593V11.3812H21.9666V9.0861C21.966 1.97981 15.7975 0.847168 11.3507 0.847168C5.7644 0.847168 1.19961 2.77346 0.364397 8.10805C0.135705 9.57254 0.0967057 10.8607 0.427108 12.5112C1.78897 19.1904 12.9665 21.1216 14.5929 25.3478C14.8974 26.1334 14.8054 27.1422 14.6544 27.7599C14.3964 28.8582 13.6869 29.9668 11.5828 29.9668C9.61816 29.9668 8.44288 28.7781 8.44288 26.9922L8.43196 23.8486H-0.0078125V26.3466C-0.0078125 33.6506 5.51481 35.8472 11.4255 35.8472C17.3363 35.8472 21.7744 33.8356 22.5357 28.3685C22.9141 25.5504 22.6302 23.7164 22.5026 23.021C21.1751 16.1645 9.2472 14.1339 8.35178 10.3098" fill="black"/>
</svg>
